<svg xmlns="http://www.w3.org/2000/svg" version="1.1">
	<rect x="230.0000" y="95.0000" width="120.0000" height="80.0000" fill="steelblue" stroke="MistyRose" />
	<rect x="500.0000" y="95.0000" width="120.0000" height="80.0000" fill="steelblue" stroke="MistyRose" />
	<rect x="770.0000" y="95.0000" width="120.0000" height="80.0000" fill="steelblue" stroke="MistyRose" />
	<rect x="1040.0000" y="95.0000" width="120.0000" height="80.0000" fill="steelblue" stroke="MistyRose" />
	<rect x="95.0000" y="190.0000" width="120.0000" height="80.0000" fill="steelblue" stroke="MistyRose" />
	<rect x="365.0000" y="190.0000" width="120.0000" height="80.0000" fill="steelblue" stroke="MistyRose" />
	<rect x="635.0000" y="190.0000" width="120.0000" height="80.0000" fill="steelblue" stroke="MistyRose" />
	<rect x="905.0000" y="190.0000" width="120.0000" height="80.0000" fill="steelblue" stroke="MistyRose" />
	<rect x="1175.0000" y="190.0000" width="120.0000" height="80.0000" fill="steelblue" stroke="MistyRose" />
	<rect x="1310.0000" y="190.0000" width="120.0000" height="80.0000" fill="steelblue" stroke="MistyRose" />
	<rect x="230.0000" y="285.0000" width="120.0000" height="80.0000" fill="steelblue" stroke="MistyRose" />
	<rect x="500.0000" y="285.0000" width="120.0000" height="80.0000" fill="steelblue" stroke="MistyRose" />
	<rect x="770.0000" y="285.0000" width="120.0000" height="80.0000" fill="steelblue" stroke="MistyRose" />
	<rect x="1040.0000" y="285.0000" width="120.0000" height="80.0000" fill="steelblue" stroke="MistyRose" />
	<rect x="95.0000" y="380.0000" width="120.0000" height="80.0000" fill="steelblue" stroke="MistyRose" />
	<rect x="365.0000" y="380.0000" width="120.0000" height="80.0000" fill="steelblue" stroke="MistyRose" />
	<rect x="635.0000" y="380.0000" width="120.0000" height="80.0000" fill="steelblue" stroke="MistyRose" />
	<rect x="905.0000" y="380.0000" width="120.0000" height="80.0000" fill="steelblue" stroke="MistyRose" />
	<rect x="1175.0000" y="380.0000" width="120.0000" height="80.0000" fill="steelblue" stroke="MistyRose" />
	<rect x="1310.0000" y="380.0000" width="120.0000" height="80.0000" fill="steelblue" stroke="MistyRose" />
	<rect x="230.0000" y="475.0000" width="120.0000" height="80.0000" fill="steelblue" stroke="MistyRose" />
	<rect x="500.0000" y="475.0000" width="120.0000" height="80.0000" fill="steelblue" stroke="MistyRose" />
	<rect x="770.0000" y="475.0000" width="120.0000" height="80.0000" fill="steelblue" stroke="MistyRose" />
	<rect x="1040.0000" y="475.0000" width="120.0000" height="80.0000" fill="steelblue" stroke="MistyRose" />
	<rect x="95.0000" y="570.0000" width="120.0000" height="80.0000" fill="steelblue" stroke="MistyRose" />
	<rect x="365.0000" y="570.0000" width="120.0000" height="80.0000" fill="steelblue" stroke="MistyRose" />
	<rect x="635.0000" y="570.0000" width="120.0000" height="80.0000" fill="steelblue" stroke="MistyRose" />
	<rect x="905.0000" y="570.0000" width="120.0000" height="80.0000" fill="steelblue" stroke="MistyRose" />
	<rect x="1175.0000" y="570.0000" width="120.0000" height="80.0000" fill="steelblue" stroke="MistyRose" />
	<rect x="1310.0000" y="570.0000" width="120.0000" height="80.0000" fill="steelblue" stroke="MistyRose" />
	<rect x="230.0000" y="665.0000" width="120.0000" height="80.0000" fill="steelblue" stroke="MistyRose" />
	<rect x="500.0000" y="665.0000" width="120.0000" height="80.0000" fill="steelblue" stroke="MistyRose" />
	<rect x="770.0000" y="665.0000" width="120.0000" height="80.0000" fill="steelblue" stroke="MistyRose" />
	<rect x="1040.0000" y="665.0000" width="120.0000" height="80.0000" fill="steelblue" stroke="MistyRose" />
	<rect x="95.0000" y="760.0000" width="120.0000" height="80.0000" fill="steelblue" stroke="MistyRose" />
	<rect x="365.0000" y="760.0000" width="120.0000" height="80.0000" fill="steelblue" stroke="MistyRose" />
	<rect x="635.0000" y="760.0000" width="120.0000" height="80.0000" fill="steelblue" stroke="MistyRose" />
	<rect x="905.0000" y="760.0000" width="120.0000" height="80.0000" fill="steelblue" stroke="MistyRose" />
	<rect x="1175.0000" y="760.0000" width="120.0000" height="80.0000" fill="steelblue" stroke="MistyRose" />
	<rect x="1310.0000" y="760.0000" width="120.0000" height="80.0000" fill="steelblue" stroke="MistyRose" />
	<rect x="230.0000" y="855.0000" width="120.0000" height="80.0000" fill="steelblue" stroke="MistyRose" />
	<rect x="500.0000" y="855.0000" width="120.0000" height="80.0000" fill="steelblue" stroke="MistyRose" />
	<rect x="770.0000" y="855.0000" width="120.0000" height="80.0000" fill="steelblue" stroke="MistyRose" />
	<rect x="1040.0000" y="855.0000" width="120.0000" height="80.0000" fill="steelblue" stroke="MistyRose" />
	<rect x="230.0000" y="950.0000" width="120.0000" height="80.0000" fill="steelblue" stroke="MistyRose" />
	<rect x="500.0000" y="950.0000" width="120.0000" height="80.0000" fill="steelblue" stroke="MistyRose" />
	<rect x="770.0000" y="950.0000" width="120.0000" height="80.0000" fill="steelblue" stroke="MistyRose" />
	<rect x="1040.0000" y="950.0000" width="120.0000" height="80.0000" fill="steelblue" stroke="MistyRose" />
	<rect x="95.0000" y="95.0000" width="120.0000" height="80.0000" fill="steelblue" stroke="MistyRose" />
	<rect x="365.0000" y="95.0000" width="120.0000" height="80.0000" fill="steelblue" stroke="MistyRose" />
	<rect x="635.0000" y="95.0000" width="120.0000" height="80.0000" fill="steelblue" stroke="MistyRose" />
	<rect x="905.0000" y="95.0000" width="120.0000" height="80.0000" fill="steelblue" stroke="MistyRose" />
	<rect x="1175.0000" y="95.0000" width="120.0000" height="80.0000" fill="steelblue" stroke="MistyRose" />
	<rect x="1310.0000" y="95.0000" width="120.0000" height="80.0000" fill="steelblue" stroke="MistyRose" />
	<rect x="230.0000" y="190.0000" width="120.0000" height="80.0000" fill="steelblue" stroke="MistyRose" />
	<rect x="500.0000" y="190.0000" width="120.0000" height="80.0000" fill="steelblue" stroke="MistyRose" />
	<rect x="770.0000" y="190.0000" width="120.0000" height="80.0000" fill="steelblue" stroke="MistyRose" />
	<rect x="1040.0000" y="190.0000" width="120.0000" height="80.0000" fill="steelblue" stroke="MistyRose" />
	<rect x="95.0000" y="285.0000" width="120.0000" height="80.0000" fill="steelblue" stroke="MistyRose" />
	<rect x="365.0000" y="285.0000" width="120.0000" height="80.0000" fill="steelblue" stroke="MistyRose" />
	<rect x="635.0000" y="285.0000" width="120.0000" height="80.0000" fill="steelblue" stroke="MistyRose" />
	<rect x="905.0000" y="285.0000" width="120.0000" height="80.0000" fill="steelblue" stroke="MistyRose" />
	<rect x="1175.0000" y="285.0000" width="120.0000" height="80.0000" fill="steelblue" stroke="MistyRose" />
	<rect x="1310.0000" y="285.0000" width="120.0000" height="80.0000" fill="steelblue" stroke="MistyRose" />
	<rect x="230.0000" y="380.0000" width="120.0000" height="80.0000" fill="steelblue" stroke="MistyRose" />
	<rect x="500.0000" y="380.0000" width="120.0000" height="80.0000" fill="steelblue" stroke="MistyRose" />
	<rect x="770.0000" y="380.0000" width="120.0000" height="80.0000" fill="steelblue" stroke="MistyRose" />
	<rect x="1040.0000" y="380.0000" width="120.0000" height="80.0000" fill="steelblue" stroke="MistyRose" />
	<rect x="95.0000" y="475.0000" width="120.0000" height="80.0000" fill="steelblue" stroke="MistyRose" />
	<rect x="365.0000" y="475.0000" width="120.0000" height="80.0000" fill="steelblue" stroke="MistyRose" />
	<rect x="635.0000" y="475.0000" width="120.0000" height="80.0000" fill="steelblue" stroke="MistyRose" />
	<rect x="905.0000" y="475.0000" width="120.0000" height="80.0000" fill="steelblue" stroke="MistyRose" />
	<rect x="1175.0000" y="475.0000" width="120.0000" height="80.0000" fill="steelblue" stroke="MistyRose" />
	<rect x="1310.0000" y="475.0000" width="120.0000" height="80.0000" fill="steelblue" stroke="MistyRose" />
	<rect x="230.0000" y="570.0000" width="120.0000" height="80.0000" fill="steelblue" stroke="MistyRose" />
	<rect x="500.0000" y="570.0000" width="120.0000" height="80.0000" fill="steelblue" stroke="MistyRose" />
	<rect x="770.0000" y="570.0000" width="120.0000" height="80.0000" fill="steelblue" stroke="MistyRose" />
	<rect x="1040.0000" y="570.0000" width="120.0000" height="80.0000" fill="steelblue" stroke="MistyRose" />
	<rect x="95.0000" y="665.0000" width="120.0000" height="80.0000" fill="steelblue" stroke="MistyRose" />
	<rect x="365.0000" y="665.0000" width="120.0000" height="80.0000" fill="steelblue" stroke="MistyRose" />
	<rect x="635.0000" y="665.0000" width="120.0000" height="80.0000" fill="steelblue" stroke="MistyRose" />
	<rect x="905.0000" y="665.0000" width="120.0000" height="80.0000" fill="steelblue" stroke="MistyRose" />
	<rect x="1175.0000" y="665.0000" width="120.0000" height="80.0000" fill="steelblue" stroke="MistyRose" />
	<rect x="1310.0000" y="665.0000" width="120.0000" height="80.0000" fill="steelblue" stroke="MistyRose" />
	<rect x="230.0000" y="760.0000" width="120.0000" height="80.0000" fill="steelblue" stroke="MistyRose" />
	<rect x="500.0000" y="760.0000" width="120.0000" height="80.0000" fill="steelblue" stroke="MistyRose" />
	<rect x="770.0000" y="760.0000" width="120.0000" height="80.0000" fill="steelblue" stroke="MistyRose" />
	<rect x="1040.0000" y="760.0000" width="120.0000" height="80.0000" fill="steelblue" stroke="MistyRose" />
	<rect x="95.0000" y="855.0000" width="120.0000" height="80.0000" fill="steelblue" stroke="MistyRose" />
	<rect x="365.0000" y="855.0000" width="120.0000" height="80.0000" fill="steelblue" stroke="MistyRose" />
	<rect x="635.0000" y="855.0000" width="120.0000" height="80.0000" fill="steelblue" stroke="MistyRose" />
	<rect x="905.0000" y="855.0000" width="120.0000" height="80.0000" fill="steelblue" stroke="MistyRose" />
	<rect x="1175.0000" y="855.0000" width="120.0000" height="80.0000" fill="steelblue" stroke="MistyRose" />
	<rect x="1310.0000" y="855.0000" width="120.0000" height="80.0000" fill="steelblue" stroke="MistyRose" />
	<rect x="95.0000" y="950.0000" width="120.0000" height="80.0000" fill="steelblue" stroke="MistyRose" />
	<rect x="365.0000" y="950.0000" width="120.0000" height="80.0000" fill="steelblue" stroke="MistyRose" />
	<rect x="635.0000" y="950.0000" width="120.0000" height="80.0000" fill="steelblue" stroke="MistyRose" />
	<rect x="905.0000" y="950.0000" width="120.0000" height="80.0000" fill="steelblue" stroke="MistyRose" />
	<rect x="1175.0000" y="950.0000" width="120.0000" height="80.0000" fill="steelblue" stroke="MistyRose" />
	<rect x="1310.0000" y="950.0000" width="120.0000" height="80.0000" fill="steelblue" stroke="MistyRose" />
</svg>
