<svg xmlns="http://www.w3.org/2000/svg" width="2000" height="2000">
	<rect x="230.0000" y="95.0000" width="120.0000" height="80.0000" fill="steelblue" stroke="MistyRose" />
	<rect x="500.0000" y="95.0000" width="120.0000" height="80.0000" fill="steelblue" stroke="MistyRose" />
	<rect x="770.0000" y="95.0000" width="120.0000" height="80.0000" fill="steelblue" stroke="MistyRose" />
	<rect x="1040.0000" y="95.0000" width="120.0000" height="80.0000" fill="steelblue" stroke="MistyRose" />
	<rect x="95.0000" y="190.0000" width="120.0000" height="80.0000" fill="steelblue" stroke="MistyRose" />
	<rect x="365.0000" y="190.0000" width="120.0000" height="80.0000" fill="steelblue" stroke="MistyRose" />
	<rect x="635.0000" y="190.0000" width="120.0000" height="80.0000" fill="steelblue" stroke="MistyRose" />
	<rect x="905.0000" y="190.0000" width="120.0000" height="80.0000" fill="steelblue" stroke="MistyRose" />
	<rect x="1175.0000" y="190.0000" width="120.0000" height="80.0000" fill="steelblue" stroke="MistyRose" />
	<rect x="1310.0000" y="190.0000" width="120.0000" height="80.0000" fill="steelblue" stroke="MistyRose" />
	<rect x="230.0000" y="285.0000" width="120.0000" height="80.0000" fill="steelblue" stroke="MistyRose" />
	<rect x="500.0000" y="285.0000" width="120.0000" height="80.0000" fill="steelblue" stroke="MistyRose" />
	<rect x="770.0000" y="285.0000" width="120.0000" height="80.0000" fill="steelblue" stroke="MistyRose" />
	<rect x="1040.0000" y="285.0000" width="120.0000" height="80.0000" fill="steelblue" stroke="MistyRose" />
	<rect x="95.0000" y="380.0000" width="120.0000" height="80.0000" fill="steelblue" stroke="MistyRose" />
	<rect x="365.0000" y="380.0000" width="120.0000" height="80.0000" fill="steelblue" stroke="MistyRose" />
	<rect x="635.0000" y="380.0000" width="120.0000" height="80.0000" fill="steelblue" stroke="MistyRose" />
	<rect x="905.0000" y="380.0000" width="120.0000" height="80.0000" fill="steelblue" stroke="MistyRose" />
	<rect x="1175.0000" y="380.0000" width="120.0000" height="80.0000" fill="steelblue" stroke="MistyRose" />
	<rect x="1310.0000" y="380.0000" width="120.0000" height="80.0000" fill="steelblue" stroke="MistyRose" />
	<rect x="230.0000" y="475.0000" width="120.0000" height="80.0000" fill="steelblue" stroke="MistyRose" />
	<rect x="500.0000" y="475.0000" width="120.0000" height="80.0000" fill="steelblue" stroke="MistyRose" />
	<rect x="770.0000" y="475.0000" width="120.0000" height="80.0000" fill="steelblue" stroke="MistyRose" />
	<rect x="1040.0000" y="475.0000" width="120.0000" height="80.0000" fill="steelblue" stroke="MistyRose" />
	<rect x="95.0000" y="570.0000" width="120.0000" height="80.0000" fill="steelblue" stroke="MistyRose" />
	<rect x="365.0000" y="570.0000" width="120.0000" height="80.0000" fill="steelblue" stroke="MistyRose" />
	<rect x="635.0000" y="570.0000" width="120.0000" height="80.0000" fill="steelblue" stroke="MistyRose" />
	<rect x="905.0000" y="570.0000" width="120.0000" height="80.0000" fill="steelblue" stroke="MistyRose" />
	<rect x="1175.0000" y="570.0000" width="120.0000" height="80.0000" fill="steelblue" stroke="MistyRose" />
	<rect x="1310.0000" y="570.0000" width="120.0000" height="80.0000" fill="steelblue" stroke="MistyRose" />
	<rect x="230.0000" y="665.0000" width="120.0000" height="80.0000" fill="steelblue" stroke="MistyRose" />
	<rect x="500.0000" y="665.0000" width="120.0000" height="80.0000" fill="steelblue" stroke="MistyRose" />
	<rect x="770.0000" y="665.0000" width="120.0000" height="80.0000" fill="steelblue" stroke="MistyRose" />
	<rect x="1040.0000" y="665.0000" width="120.0000" height="80.0000" fill="steelblue" stroke="MistyRose" />
	<rect x="95.0000" y="760.0000" width="120.0000" height="80.0000" fill="steelblue" stroke="MistyRose" />
	<rect x="365.0000" y="760.0000" width="120.0000" height="80.0000" fill="steelblue" stroke="MistyRose" />
	<rect x="635.0000" y="760.0000" width="120.0000" height="80.0000" fill="steelblue" stroke="MistyRose" />
	<rect x="905.0000" y="760.0000" width="120.0000" height="80.0000" fill="steelblue" stroke="MistyRose" />
	<rect x="1175.0000" y="760.0000" width="120.0000" height="80.0000" fill="steelblue" stroke="MistyRose" />
	<rect x="1310.0000" y="760.0000" width="120.0000" height="80.0000" fill="steelblue" stroke="MistyRose" />
	<rect x="230.0000" y="855.0000" width="120.0000" height="80.0000" fill="steelblue" stroke="MistyRose" />
	<rect x="500.0000" y="855.0000" width="120.0000" height="80.0000" fill="steelblue" stroke="MistyRose" />
	<rect x="770.0000" y="855.0000" width="120.0000" height="80.0000" fill="steelblue" stroke="MistyRose" />
	<rect x="1040.0000" y="855.0000" width="120.0000" height="80.0000" fill="steelblue" stroke="MistyRose" />
	<rect x="230.0000" y="950.0000" width="120.0000" height="80.0000" fill="steelblue" stroke="MistyRose" />
	<rect x="500.0000" y="950.0000" width="120.0000" height="80.0000" fill="steelblue" stroke="MistyRose" />
	<rect x="770.0000" y="950.0000" width="120.0000" height="80.0000" fill="steelblue" stroke="MistyRose" />
	<rect x="1040.0000" y="950.0000" width="120.0000" height="80.0000" fill="steelblue" stroke="MistyRose" />
	<rect x="95.0000" y="95.0000" width="120.0000" height="80.0000" fill="steelblue" stroke="MistyRose" />
	<rect x="365.0000" y="95.0000" width="120.0000" height="80.0000" fill="steelblue" stroke="MistyRose" />
	<rect x="635.0000" y="95.0000" width="120.0000" height="80.0000" fill="steelblue" stroke="MistyRose" />
	<rect x="905.0000" y="95.0000" width="120.0000" height="80.0000" fill="steelblue" stroke="MistyRose" />
	<rect x="1175.0000" y="95.0000" width="120.0000" height="80.0000" fill="steelblue" stroke="MistyRose" />
	<rect x="1310.0000" y="95.0000" width="120.0000" height="80.0000" fill="steelblue" stroke="MistyRose" />
	<rect x="230.0000" y="190.0000" width="120.0000" height="80.0000" fill="steelblue" stroke="MistyRose" />
	<rect x="500.0000" y="190.0000" width="120.0000" height="80.0000" fill="steelblue" stroke="MistyRose" />
	<rect x="770.0000" y="190.0000" width="120.0000" height="80.0000" fill="steelblue" stroke="MistyRose" />
	<rect x="1040.0000" y="190.0000" width="120.0000" height="80.0000" fill="steelblue" stroke="MistyRose" />
	<rect x="95.0000" y="285.0000" width="120.0000" height="80.0000" fill="steelblue" stroke="MistyRose" />
	<rect x="365.0000" y="285.0000" width="120.0000" height="80.0000" fill="steelblue" stroke="MistyRose" />
	<rect x="635.0000" y="285.0000" width="120.0000" height="80.0000" fill="steelblue" stroke="MistyRose" />
	<rect x="905.0000" y="285.0000" width="120.0000" height="80.0000" fill="steelblue" stroke="MistyRose" />
	<rect x="1175.0000" y="285.0000" width="120.0000" height="80.0000" fill="steelblue" stroke="MistyRose" />
	<rect x="1310.0000" y="285.0000" width="120.0000" height="80.0000" fill="steelblue" stroke="MistyRose" />
	<rect x="230.0000" y="380.0000" width="120.0000" height="80.0000" fill="steelblue" stroke="MistyRose" />
	<rect x="500.0000" y="380.0000" width="120.0000" height="80.0000" fill="steelblue" stroke="MistyRose" />
	<rect x="770.0000" y="380.0000" width="120.0000" height="80.0000" fill="steelblue" stroke="MistyRose" />
	<rect x="1040.0000" y="380.0000" width="120.0000" height="80.0000" fill="steelblue" stroke="MistyRose" />
	<rect x="95.0000" y="475.0000" width="120.0000" height="80.0000" fill="steelblue" stroke="MistyRose" />
	<rect x="365.0000" y="475.0000" width="120.0000" height="80.0000" fill="steelblue" stroke="MistyRose" />
	<rect x="635.0000" y="475.0000" width="120.0000" height="80.0000" fill="steelblue" stroke="MistyRose" />
	<rect x="905.0000" y="475.0000" width="120.0000" height="80.0000" fill="steelblue" stroke="MistyRose" />
	<rect x="1175.0000" y="475.0000" width="120.0000" height="80.0000" fill="steelblue" stroke="MistyRose" />
	<rect x="1310.0000" y="475.0000" width="120.0000" height="80.0000" fill="steelblue" stroke="MistyRose" />
	<rect x="230.0000" y="570.0000" width="120.0000" height="80.0000" fill="steelblue" stroke="MistyRose" />
	<rect x="500.0000" y="570.0000" width="120.0000" height="80.0000" fill="steelblue" stroke="MistyRose" />
	<rect x="770.0000" y="570.0000" width="120.0000" height="80.0000" fill="steelblue" stroke="MistyRose" />
	<rect x="1040.0000" y="570.0000" width="120.0000" height="80.0000" fill="steelblue" stroke="MistyRose" />
	<rect x="95.0000" y="665.0000" width="120.0000" height="80.0000" fill="steelblue" stroke="MistyRose" />
	<rect x="365.0000" y="665.0000" width="120.0000" height="80.0000" fill="steelblue" stroke="MistyRose" />
	<rect x="635.0000" y="665.0000" width="120.0000" height="80.0000" fill="steelblue" stroke="MistyRose" />
	<rect x="905.0000" y="665.0000" width="120.0000" height="80.0000" fill="steelblue" stroke="MistyRose" />
	<rect x="1175.0000" y="665.0000" width="120.0000" height="80.0000" fill="steelblue" stroke="MistyRose" />
	<rect x="1310.0000" y="665.0000" width="120.0000" height="80.0000" fill="steelblue" stroke="MistyRose" />
	<rect x="230.0000" y="760.0000" width="120.0000" height="80.0000" fill="steelblue" stroke="MistyRose" />
	<rect x="500.0000" y="760.0000" width="120.0000" height="80.0000" fill="steelblue" stroke="MistyRose" />
	<rect x="770.0000" y="760.0000" width="120.0000" height="80.0000" fill="steelblue" stroke="MistyRose" />
	<rect x="1040.0000" y="760.0000" width="120.0000" height="80.0000" fill="steelblue" stroke="MistyRose" />
	<rect x="95.0000" y="855.0000" width="120.0000" height="80.0000" fill="steelblue" stroke="MistyRose" />
	<rect x="365.0000" y="855.0000" width="120.0000" height="80.0000" fill="steelblue" stroke="MistyRose" />
	<rect x="635.0000" y="855.0000" width="120.0000" height="80.0000" fill="steelblue" stroke="MistyRose" />
	<rect x="905.0000" y="855.0000" width="120.0000" height="80.0000" fill="steelblue" stroke="MistyRose" />
	<rect x="1175.0000" y="855.0000" width="120.0000" height="80.0000" fill="steelblue" stroke="MistyRose" />
	<rect x="1310.0000" y="855.0000" width="120.0000" height="80.0000" fill="steelblue" stroke="MistyRose" />
	<rect x="95.0000" y="950.0000" width="120.0000" height="80.0000" fill="steelblue" stroke="MistyRose" />
	<rect x="365.0000" y="950.0000" width="120.0000" height="80.0000" fill="steelblue" stroke="MistyRose" />
	<rect x="635.0000" y="950.0000" width="120.0000" height="80.0000" fill="steelblue" stroke="MistyRose" />
	<rect x="905.0000" y="950.0000" width="120.0000" height="80.0000" fill="steelblue" stroke="MistyRose" />
	<rect x="1175.0000" y="950.0000" width="120.0000" height="80.0000" fill="steelblue" stroke="MistyRose" />
	<rect x="1310.0000" y="950.0000" width="120.0000" height="80.0000" fill="steelblue" stroke="MistyRose" />
	<text x="965.0000" y="455.0000" text-anchor="middle">0</text>
	<text x="965.0000" y="395.0000" text-anchor="middle">1</text>
	<text x="915.0000" y="420.0000" text-anchor="end">1</text>
	<text x="1015.0000" y="420.0000" text-anchor="start">0</text>
	<text x="965.0000" y="420.0000" text-anchor="middle">2</text>
	<text x="1370.0000" y="1025.0000" text-anchor="middle">1</text>
	<text x="1370.0000" y="965.0000" text-anchor="middle">0</text>
	<text x="1320.0000" y="990.0000" text-anchor="end">0</text>
	<text x="1420.0000" y="990.0000" text-anchor="start">0</text>
	<text x="1370.0000" y="990.0000" text-anchor="middle">1</text>
	<rect x="1310.0000" y="951.0000" width="5.0000" height="5.0000" fill="red" stroke="red" />
	<text x="1310.0000" y="951.0000" text-anchor="middle">000.003.041-40</text>
	<rect x="1310.0000" y="951.0000" width="5.0000" height="5.0000" fill="red" stroke="red" />
	<text x="1310.0000" y="951.0000" text-anchor="middle">000.005.881-56</text>
	<text x="965.0000" y="455.0000" text-anchor="middle">0</text>
	<text x="965.0000" y="395.0000" text-anchor="middle">0</text>
	<text x="915.0000" y="420.0000" text-anchor="end">0</text>
	<text x="1015.0000" y="420.0000" text-anchor="start">0</text>
	<text x="965.0000" y="420.0000" text-anchor="middle">0</text>
	<text x="1370.0000" y="1025.0000" text-anchor="middle">1</text>
	<text x="1370.0000" y="965.0000" text-anchor="middle">0</text>
	<text x="1320.0000" y="990.0000" text-anchor="end">2</text>
	<text x="1420.0000" y="990.0000" text-anchor="start">0</text>
	<text x="1370.0000" y="990.0000" text-anchor="middle">3</text>
</svg>
