<svg xmlns="http://www.w3.org/2000/svg" width="2000" height="2000">
	<rect x="230.0000" y="95.0000" width="120.0000" height="80.0000" fill="steelblue" stroke="MistyRose" />
	<rect x="500.0000" y="95.0000" width="120.0000" height="80.0000" fill="steelblue" stroke="MistyRose" />
	<rect x="770.0000" y="95.0000" width="120.0000" height="80.0000" fill="steelblue" stroke="MistyRose" />
	<rect x="1040.0000" y="95.0000" width="120.0000" height="80.0000" fill="steelblue" stroke="MistyRose" />
	<rect x="95.0000" y="190.0000" width="120.0000" height="80.0000" fill="steelblue" stroke="MistyRose" />
	<rect x="365.0000" y="190.0000" width="120.0000" height="80.0000" fill="steelblue" stroke="MistyRose" />
	<rect x="635.0000" y="190.0000" width="120.0000" height="80.0000" fill="steelblue" stroke="MistyRose" />
	<rect x="905.0000" y="190.0000" width="120.0000" height="80.0000" fill="steelblue" stroke="MistyRose" />
	<rect x="1175.0000" y="190.0000" width="120.0000" height="80.0000" fill="steelblue" stroke="MistyRose" />
	<rect x="1310.0000" y="190.0000" width="120.0000" height="80.0000" fill="steelblue" stroke="MistyRose" />
	<rect x="230.0000" y="285.0000" width="120.0000" height="80.0000" fill="steelblue" stroke="MistyRose" />
	<rect x="500.0000" y="285.0000" width="120.0000" height="80.0000" fill="steelblue" stroke="MistyRose" />
	<rect x="770.0000" y="285.0000" width="120.0000" height="80.0000" fill="steelblue" stroke="MistyRose" />
	<rect x="1040.0000" y="285.0000" width="120.0000" height="80.0000" fill="steelblue" stroke="MistyRose" />
	<rect x="95.0000" y="380.0000" width="120.0000" height="80.0000" fill="steelblue" stroke="MistyRose" />
	<rect x="365.0000" y="380.0000" width="120.0000" height="80.0000" fill="steelblue" stroke="MistyRose" />
	<rect x="635.0000" y="380.0000" width="120.0000" height="80.0000" fill="steelblue" stroke="MistyRose" />
	<rect x="905.0000" y="380.0000" width="120.0000" height="80.0000" fill="steelblue" stroke="MistyRose" />
	<rect x="1175.0000" y="380.0000" width="120.0000" height="80.0000" fill="steelblue" stroke="MistyRose" />
	<rect x="1310.0000" y="380.0000" width="120.0000" height="80.0000" fill="steelblue" stroke="MistyRose" />
	<rect x="230.0000" y="475.0000" width="120.0000" height="80.0000" fill="steelblue" stroke="MistyRose" />
	<rect x="500.0000" y="475.0000" width="120.0000" height="80.0000" fill="steelblue" stroke="MistyRose" />
	<rect x="770.0000" y="475.0000" width="120.0000" height="80.0000" fill="steelblue" stroke="MistyRose" />
	<rect x="1040.0000" y="475.0000" width="120.0000" height="80.0000" fill="steelblue" stroke="MistyRose" />
	<rect x="95.0000" y="570.0000" width="120.0000" height="80.0000" fill="steelblue" stroke="MistyRose" />
	<rect x="365.0000" y="570.0000" width="120.0000" height="80.0000" fill="steelblue" stroke="MistyRose" />
	<rect x="635.0000" y="570.0000" width="120.0000" height="80.0000" fill="steelblue" stroke="MistyRose" />
	<rect x="905.0000" y="570.0000" width="120.0000" height="80.0000" fill="steelblue" stroke="MistyRose" />
	<rect x="1175.0000" y="570.0000" width="120.0000" height="80.0000" fill="steelblue" stroke="MistyRose" />
	<rect x="1310.0000" y="570.0000" width="120.0000" height="80.0000" fill="steelblue" stroke="MistyRose" />
	<rect x="230.0000" y="665.0000" width="120.0000" height="80.0000" fill="steelblue" stroke="MistyRose" />
	<rect x="500.0000" y="665.0000" width="120.0000" height="80.0000" fill="steelblue" stroke="MistyRose" />
	<rect x="770.0000" y="665.0000" width="120.0000" height="80.0000" fill="steelblue" stroke="MistyRose" />
	<rect x="1040.0000" y="665.0000" width="120.0000" height="80.0000" fill="steelblue" stroke="MistyRose" />
	<rect x="95.0000" y="760.0000" width="120.0000" height="80.0000" fill="steelblue" stroke="MistyRose" />
	<rect x="365.0000" y="760.0000" width="120.0000" height="80.0000" fill="steelblue" stroke="MistyRose" />
	<rect x="635.0000" y="760.0000" width="120.0000" height="80.0000" fill="steelblue" stroke="MistyRose" />
	<rect x="905.0000" y="760.0000" width="120.0000" height="80.0000" fill="steelblue" stroke="MistyRose" />
	<rect x="1175.0000" y="760.0000" width="120.0000" height="80.0000" fill="steelblue" stroke="MistyRose" />
	<rect x="1310.0000" y="760.0000" width="120.0000" height="80.0000" fill="steelblue" stroke="MistyRose" />
	<rect x="230.0000" y="855.0000" width="120.0000" height="80.0000" fill="steelblue" stroke="MistyRose" />
	<rect x="500.0000" y="855.0000" width="120.0000" height="80.0000" fill="steelblue" stroke="MistyRose" />
	<rect x="770.0000" y="855.0000" width="120.0000" height="80.0000" fill="steelblue" stroke="MistyRose" />
	<rect x="1040.0000" y="855.0000" width="120.0000" height="80.0000" fill="steelblue" stroke="MistyRose" />
	<rect x="230.0000" y="950.0000" width="120.0000" height="80.0000" fill="steelblue" stroke="MistyRose" />
	<rect x="500.0000" y="950.0000" width="120.0000" height="80.0000" fill="steelblue" stroke="MistyRose" />
	<rect x="770.0000" y="950.0000" width="120.0000" height="80.0000" fill="steelblue" stroke="MistyRose" />
	<rect x="1040.0000" y="950.0000" width="120.0000" height="80.0000" fill="steelblue" stroke="MistyRose" />
	<rect x="95.0000" y="95.0000" width="120.0000" height="80.0000" fill="steelblue" stroke="MistyRose" />
	<rect x="365.0000" y="95.0000" width="120.0000" height="80.0000" fill="steelblue" stroke="MistyRose" />
	<rect x="635.0000" y="95.0000" width="120.0000" height="80.0000" fill="steelblue" stroke="MistyRose" />
	<rect x="905.0000" y="95.0000" width="120.0000" height="80.0000" fill="steelblue" stroke="MistyRose" />
	<rect x="1175.0000" y="95.0000" width="120.0000" height="80.0000" fill="steelblue" stroke="MistyRose" />
	<rect x="1310.0000" y="95.0000" width="120.0000" height="80.0000" fill="steelblue" stroke="MistyRose" />
	<rect x="230.0000" y="190.0000" width="120.0000" height="80.0000" fill="steelblue" stroke="MistyRose" />
	<rect x="500.0000" y="190.0000" width="120.0000" height="80.0000" fill="steelblue" stroke="MistyRose" />
	<rect x="770.0000" y="190.0000" width="120.0000" height="80.0000" fill="steelblue" stroke="MistyRose" />
	<rect x="1040.0000" y="190.0000" width="120.0000" height="80.0000" fill="steelblue" stroke="MistyRose" />
	<rect x="95.0000" y="285.0000" width="120.0000" height="80.0000" fill="steelblue" stroke="MistyRose" />
	<rect x="365.0000" y="285.0000" width="120.0000" height="80.0000" fill="steelblue" stroke="MistyRose" />
	<rect x="635.0000" y="285.0000" width="120.0000" height="80.0000" fill="steelblue" stroke="MistyRose" />
	<rect x="905.0000" y="285.0000" width="120.0000" height="80.0000" fill="steelblue" stroke="MistyRose" />
	<rect x="1175.0000" y="285.0000" width="120.0000" height="80.0000" fill="steelblue" stroke="MistyRose" />
	<rect x="1310.0000" y="285.0000" width="120.0000" height="80.0000" fill="steelblue" stroke="MistyRose" />
	<rect x="230.0000" y="380.0000" width="120.0000" height="80.0000" fill="steelblue" stroke="MistyRose" />
	<rect x="500.0000" y="380.0000" width="120.0000" height="80.0000" fill="steelblue" stroke="MistyRose" />
	<rect x="770.0000" y="380.0000" width="120.0000" height="80.0000" fill="steelblue" stroke="MistyRose" />
	<rect x="1040.0000" y="380.0000" width="120.0000" height="80.0000" fill="steelblue" stroke="MistyRose" />
	<rect x="95.0000" y="475.0000" width="120.0000" height="80.0000" fill="steelblue" stroke="MistyRose" />
	<rect x="365.0000" y="475.0000" width="120.0000" height="80.0000" fill="steelblue" stroke="MistyRose" />
	<rect x="635.0000" y="475.0000" width="120.0000" height="80.0000" fill="steelblue" stroke="MistyRose" />
	<rect x="905.0000" y="475.0000" width="120.0000" height="80.0000" fill="steelblue" stroke="MistyRose" />
	<rect x="1175.0000" y="475.0000" width="120.0000" height="80.0000" fill="steelblue" stroke="MistyRose" />
	<rect x="1310.0000" y="475.0000" width="120.0000" height="80.0000" fill="steelblue" stroke="MistyRose" />
	<rect x="230.0000" y="570.0000" width="120.0000" height="80.0000" fill="steelblue" stroke="MistyRose" />
	<rect x="500.0000" y="570.0000" width="120.0000" height="80.0000" fill="steelblue" stroke="MistyRose" />
	<rect x="770.0000" y="570.0000" width="120.0000" height="80.0000" fill="steelblue" stroke="MistyRose" />
	<rect x="1040.0000" y="570.0000" width="120.0000" height="80.0000" fill="steelblue" stroke="MistyRose" />
	<rect x="95.0000" y="665.0000" width="120.0000" height="80.0000" fill="steelblue" stroke="MistyRose" />
	<rect x="365.0000" y="665.0000" width="120.0000" height="80.0000" fill="steelblue" stroke="MistyRose" />
	<rect x="635.0000" y="665.0000" width="120.0000" height="80.0000" fill="steelblue" stroke="MistyRose" />
	<rect x="905.0000" y="665.0000" width="120.0000" height="80.0000" fill="steelblue" stroke="MistyRose" />
	<rect x="1175.0000" y="665.0000" width="120.0000" height="80.0000" fill="steelblue" stroke="MistyRose" />
	<rect x="1310.0000" y="665.0000" width="120.0000" height="80.0000" fill="steelblue" stroke="MistyRose" />
	<rect x="230.0000" y="760.0000" width="120.0000" height="80.0000" fill="steelblue" stroke="MistyRose" />
	<rect x="500.0000" y="760.0000" width="120.0000" height="80.0000" fill="steelblue" stroke="MistyRose" />
	<rect x="770.0000" y="760.0000" width="120.0000" height="80.0000" fill="steelblue" stroke="MistyRose" />
	<rect x="1040.0000" y="760.0000" width="120.0000" height="80.0000" fill="steelblue" stroke="MistyRose" />
	<rect x="95.0000" y="855.0000" width="120.0000" height="80.0000" fill="steelblue" stroke="MistyRose" />
	<rect x="365.0000" y="855.0000" width="120.0000" height="80.0000" fill="steelblue" stroke="MistyRose" />
	<rect x="635.0000" y="855.0000" width="120.0000" height="80.0000" fill="steelblue" stroke="MistyRose" />
	<rect x="905.0000" y="855.0000" width="120.0000" height="80.0000" fill="steelblue" stroke="MistyRose" />
	<rect x="1175.0000" y="855.0000" width="120.0000" height="80.0000" fill="steelblue" stroke="MistyRose" />
	<rect x="1310.0000" y="855.0000" width="120.0000" height="80.0000" fill="steelblue" stroke="MistyRose" />
	<rect x="95.0000" y="950.0000" width="120.0000" height="80.0000" fill="steelblue" stroke="MistyRose" />
	<rect x="365.0000" y="950.0000" width="120.0000" height="80.0000" fill="steelblue" stroke="MistyRose" />
	<rect x="635.0000" y="950.0000" width="120.0000" height="80.0000" fill="steelblue" stroke="MistyRose" />
	<rect x="905.0000" y="950.0000" width="120.0000" height="80.0000" fill="steelblue" stroke="MistyRose" />
	<rect x="1175.0000" y="950.0000" width="120.0000" height="80.0000" fill="steelblue" stroke="MistyRose" />
	<rect x="1310.0000" y="950.0000" width="120.0000" height="80.0000" fill="steelblue" stroke="MistyRose" />
	<line x1="495.0000" y1="375.0000" x2="505.0000" y2="385.0000" stroke="red" stroke-width="2" />
	<line x1="495.0000" y1="385.0000" x2="505.0000" y2="375.0000" stroke="red" stroke-width="2" />
	<line x1="630.0000" y1="375.0000" x2="640.0000" y2="385.0000" stroke="red" stroke-width="2" />
	<line x1="630.0000" y1="385.0000" x2="640.0000" y2="375.0000" stroke="red" stroke-width="2" />
	<line x1="765.0000" y1="375.0000" x2="775.0000" y2="385.0000" stroke="red" stroke-width="2" />
	<line x1="765.0000" y1="385.0000" x2="775.0000" y2="375.0000" stroke="red" stroke-width="2" />
	<line x1="900.0000" y1="375.0000" x2="910.0000" y2="385.0000" stroke="red" stroke-width="2" />
	<line x1="900.0000" y1="385.0000" x2="910.0000" y2="375.0000" stroke="red" stroke-width="2" />
	<line x1="495.0000" y1="470.0000" x2="505.0000" y2="480.0000" stroke="red" stroke-width="2" />
	<line x1="495.0000" y1="480.0000" x2="505.0000" y2="470.0000" stroke="red" stroke-width="2" />
	<line x1="630.0000" y1="470.0000" x2="640.0000" y2="480.0000" stroke="red" stroke-width="2" />
	<line x1="630.0000" y1="480.0000" x2="640.0000" y2="470.0000" stroke="red" stroke-width="2" />
	<line x1="765.0000" y1="470.0000" x2="775.0000" y2="480.0000" stroke="red" stroke-width="2" />
	<line x1="765.0000" y1="480.0000" x2="775.0000" y2="470.0000" stroke="red" stroke-width="2" />
	<line x1="900.0000" y1="470.0000" x2="910.0000" y2="480.0000" stroke="red" stroke-width="2" />
	<line x1="900.0000" y1="480.0000" x2="910.0000" y2="470.0000" stroke="red" stroke-width="2" />
	<line x1="495.0000" y1="565.0000" x2="505.0000" y2="575.0000" stroke="red" stroke-width="2" />
	<line x1="495.0000" y1="575.0000" x2="505.0000" y2="565.0000" stroke="red" stroke-width="2" />
	<line x1="630.0000" y1="565.0000" x2="640.0000" y2="575.0000" stroke="red" stroke-width="2" />
	<line x1="630.0000" y1="575.0000" x2="640.0000" y2="565.0000" stroke="red" stroke-width="2" />
	<line x1="765.0000" y1="565.0000" x2="775.0000" y2="575.0000" stroke="red" stroke-width="2" />
	<line x1="765.0000" y1="575.0000" x2="775.0000" y2="565.0000" stroke="red" stroke-width="2" />
	<line x1="900.0000" y1="565.0000" x2="910.0000" y2="575.0000" stroke="red" stroke-width="2" />
	<line x1="900.0000" y1="575.0000" x2="910.0000" y2="565.0000" stroke="red" stroke-width="2" />
	<line x1="495.0000" y1="660.0000" x2="505.0000" y2="670.0000" stroke="red" stroke-width="2" />
	<line x1="495.0000" y1="670.0000" x2="505.0000" y2="660.0000" stroke="red" stroke-width="2" />
	<line x1="630.0000" y1="660.0000" x2="640.0000" y2="670.0000" stroke="red" stroke-width="2" />
	<line x1="630.0000" y1="670.0000" x2="640.0000" y2="660.0000" stroke="red" stroke-width="2" />
	<line x1="765.0000" y1="660.0000" x2="775.0000" y2="670.0000" stroke="red" stroke-width="2" />
	<line x1="765.0000" y1="670.0000" x2="775.0000" y2="660.0000" stroke="red" stroke-width="2" />
	<line x1="900.0000" y1="660.0000" x2="910.0000" y2="670.0000" stroke="red" stroke-width="2" />
	<line x1="900.0000" y1="670.0000" x2="910.0000" y2="660.0000" stroke="red" stroke-width="2" />
</svg>
