<svg xmlns="http://www.w3.org/2000/svg" width="2000" height="2000">
	<rect x="95.0000" y="95.0000" width="120.0000" height="80.0000" fill="steelblue" stroke="MistyRose" />
	<text x="100.0000" y="110.0000" text-anchor="start">b01.1</text>
	<rect x="230.0000" y="95.0000" width="120.0000" height="80.0000" fill="steelblue" stroke="MistyRose" />
	<text x="235.0000" y="110.0000" text-anchor="start">b01.2</text>
	<rect x="365.0000" y="95.0000" width="120.0000" height="80.0000" fill="steelblue" stroke="MistyRose" />
	<text x="370.0000" y="110.0000" text-anchor="start">b01.3</text>
	<rect x="500.0000" y="95.0000" width="120.0000" height="80.0000" fill="steelblue" stroke="MistyRose" />
	<text x="505.0000" y="110.0000" text-anchor="start">b01.4</text>
	<rect x="635.0000" y="95.0000" width="120.0000" height="80.0000" fill="steelblue" stroke="MistyRose" />
	<text x="640.0000" y="110.0000" text-anchor="start">b01.5</text>
	<rect x="770.0000" y="95.0000" width="120.0000" height="80.0000" fill="steelblue" stroke="MistyRose" />
	<text x="775.0000" y="110.0000" text-anchor="start">b01.6</text>
	<rect x="905.0000" y="95.0000" width="120.0000" height="80.0000" fill="steelblue" stroke="MistyRose" />
	<text x="910.0000" y="110.0000" text-anchor="start">b01.7</text>
	<rect x="1040.0000" y="95.0000" width="120.0000" height="80.0000" fill="steelblue" stroke="MistyRose" />
	<text x="1045.0000" y="110.0000" text-anchor="start">b01.8</text>
	<rect x="1175.0000" y="95.0000" width="120.0000" height="80.0000" fill="steelblue" stroke="MistyRose" />
	<text x="1180.0000" y="110.0000" text-anchor="start">b01.9</text>
	<rect x="1310.0000" y="95.0000" width="120.0000" height="80.0000" fill="steelblue" stroke="MistyRose" />
	<text x="1315.0000" y="110.0000" text-anchor="start">b01.10</text>
	<rect x="95.0000" y="190.0000" width="120.0000" height="80.0000" fill="steelblue" stroke="MistyRose" />
	<text x="100.0000" y="205.0000" text-anchor="start">b02.1</text>
	<rect x="230.0000" y="190.0000" width="120.0000" height="80.0000" fill="steelblue" stroke="MistyRose" />
	<text x="235.0000" y="205.0000" text-anchor="start">b02.2</text>
	<rect x="365.0000" y="190.0000" width="120.0000" height="80.0000" fill="steelblue" stroke="MistyRose" />
	<text x="370.0000" y="205.0000" text-anchor="start">b02.3</text>
	<rect x="500.0000" y="190.0000" width="120.0000" height="80.0000" fill="steelblue" stroke="MistyRose" />
	<text x="505.0000" y="205.0000" text-anchor="start">b02.4</text>
	<rect x="635.0000" y="190.0000" width="120.0000" height="80.0000" fill="steelblue" stroke="MistyRose" />
	<text x="640.0000" y="205.0000" text-anchor="start">b02.5</text>
	<rect x="770.0000" y="190.0000" width="120.0000" height="80.0000" fill="steelblue" stroke="MistyRose" />
	<text x="775.0000" y="205.0000" text-anchor="start">b02.6</text>
	<rect x="905.0000" y="190.0000" width="120.0000" height="80.0000" fill="steelblue" stroke="MistyRose" />
	<text x="910.0000" y="205.0000" text-anchor="start">b02.7</text>
	<rect x="1040.0000" y="190.0000" width="120.0000" height="80.0000" fill="steelblue" stroke="MistyRose" />
	<text x="1045.0000" y="205.0000" text-anchor="start">b02.8</text>
	<rect x="1175.0000" y="190.0000" width="120.0000" height="80.0000" fill="steelblue" stroke="MistyRose" />
	<text x="1180.0000" y="205.0000" text-anchor="start">b02.9</text>
	<rect x="1310.0000" y="190.0000" width="120.0000" height="80.0000" fill="steelblue" stroke="MistyRose" />
	<text x="1315.0000" y="205.0000" text-anchor="start">b02.10</text>
	<rect x="95.0000" y="285.0000" width="120.0000" height="80.0000" fill="steelblue" stroke="MistyRose" />
	<text x="100.0000" y="300.0000" text-anchor="start">b03.1</text>
	<rect x="230.0000" y="285.0000" width="120.0000" height="80.0000" fill="steelblue" stroke="MistyRose" />
	<text x="235.0000" y="300.0000" text-anchor="start">b03.2</text>
	<rect x="365.0000" y="285.0000" width="120.0000" height="80.0000" fill="steelblue" stroke="MistyRose" />
	<text x="370.0000" y="300.0000" text-anchor="start">b03.3</text>
	<rect x="500.0000" y="285.0000" width="120.0000" height="80.0000" fill="steelblue" stroke="MistyRose" />
	<text x="505.0000" y="300.0000" text-anchor="start">b03.4</text>
	<rect x="635.0000" y="285.0000" width="120.0000" height="80.0000" fill="steelblue" stroke="MistyRose" />
	<text x="640.0000" y="300.0000" text-anchor="start">b03.5</text>
	<rect x="770.0000" y="285.0000" width="120.0000" height="80.0000" fill="steelblue" stroke="MistyRose" />
	<text x="775.0000" y="300.0000" text-anchor="start">b03.6</text>
	<rect x="905.0000" y="285.0000" width="120.0000" height="80.0000" fill="steelblue" stroke="MistyRose" />
	<text x="910.0000" y="300.0000" text-anchor="start">b03.7</text>
	<rect x="1040.0000" y="285.0000" width="120.0000" height="80.0000" fill="steelblue" stroke="MistyRose" />
	<text x="1045.0000" y="300.0000" text-anchor="start">b03.8</text>
	<rect x="1175.0000" y="285.0000" width="120.0000" height="80.0000" fill="steelblue" stroke="MistyRose" />
	<text x="1180.0000" y="300.0000" text-anchor="start">b03.9</text>
	<rect x="1310.0000" y="285.0000" width="120.0000" height="80.0000" fill="steelblue" stroke="MistyRose" />
	<text x="1315.0000" y="300.0000" text-anchor="start">b03.10</text>
	<rect x="95.0000" y="380.0000" width="120.0000" height="80.0000" fill="steelblue" stroke="MistyRose" />
	<text x="100.0000" y="395.0000" text-anchor="start">b04.1</text>
	<rect x="230.0000" y="380.0000" width="120.0000" height="80.0000" fill="steelblue" stroke="MistyRose" />
	<text x="235.0000" y="395.0000" text-anchor="start">b04.2</text>
	<rect x="365.0000" y="380.0000" width="120.0000" height="80.0000" fill="steelblue" stroke="MistyRose" />
	<text x="370.0000" y="395.0000" text-anchor="start">b04.3</text>
	<rect x="500.0000" y="380.0000" width="120.0000" height="80.0000" fill="steelblue" stroke="MistyRose" />
	<text x="505.0000" y="395.0000" text-anchor="start">b04.4</text>
	<rect x="635.0000" y="380.0000" width="120.0000" height="80.0000" fill="steelblue" stroke="MistyRose" />
	<text x="640.0000" y="395.0000" text-anchor="start">b04.5</text>
	<rect x="770.0000" y="380.0000" width="120.0000" height="80.0000" fill="steelblue" stroke="MistyRose" />
	<text x="775.0000" y="395.0000" text-anchor="start">b04.6</text>
	<rect x="905.0000" y="380.0000" width="120.0000" height="80.0000" fill="steelblue" stroke="MistyRose" />
	<text x="910.0000" y="395.0000" text-anchor="start">b04.7</text>
	<rect x="1040.0000" y="380.0000" width="120.0000" height="80.0000" fill="steelblue" stroke="MistyRose" />
	<text x="1045.0000" y="395.0000" text-anchor="start">b04.8</text>
	<rect x="1175.0000" y="380.0000" width="120.0000" height="80.0000" fill="steelblue" stroke="MistyRose" />
	<text x="1180.0000" y="395.0000" text-anchor="start">b04.9</text>
	<rect x="1310.0000" y="380.0000" width="120.0000" height="80.0000" fill="steelblue" stroke="MistyRose" />
	<text x="1315.0000" y="395.0000" text-anchor="start">b04.10</text>
	<rect x="95.0000" y="475.0000" width="120.0000" height="80.0000" fill="steelblue" stroke="MistyRose" />
	<text x="100.0000" y="490.0000" text-anchor="start">b05.1</text>
	<rect x="230.0000" y="475.0000" width="120.0000" height="80.0000" fill="steelblue" stroke="MistyRose" />
	<text x="235.0000" y="490.0000" text-anchor="start">b05.2</text>
	<rect x="365.0000" y="475.0000" width="120.0000" height="80.0000" fill="steelblue" stroke="MistyRose" />
	<text x="370.0000" y="490.0000" text-anchor="start">b05.3</text>
	<rect x="500.0000" y="475.0000" width="120.0000" height="80.0000" fill="steelblue" stroke="MistyRose" />
	<text x="505.0000" y="490.0000" text-anchor="start">b05.4</text>
	<rect x="635.0000" y="475.0000" width="120.0000" height="80.0000" fill="steelblue" stroke="MistyRose" />
	<text x="640.0000" y="490.0000" text-anchor="start">b05.5</text>
	<rect x="770.0000" y="475.0000" width="120.0000" height="80.0000" fill="steelblue" stroke="MistyRose" />
	<text x="775.0000" y="490.0000" text-anchor="start">b05.6</text>
	<rect x="905.0000" y="475.0000" width="120.0000" height="80.0000" fill="steelblue" stroke="MistyRose" />
	<text x="910.0000" y="490.0000" text-anchor="start">b05.7</text>
	<rect x="1040.0000" y="475.0000" width="120.0000" height="80.0000" fill="steelblue" stroke="MistyRose" />
	<text x="1045.0000" y="490.0000" text-anchor="start">b05.8</text>
	<rect x="1175.0000" y="475.0000" width="120.0000" height="80.0000" fill="steelblue" stroke="MistyRose" />
	<text x="1180.0000" y="490.0000" text-anchor="start">b05.9</text>
	<rect x="1310.0000" y="475.0000" width="120.0000" height="80.0000" fill="steelblue" stroke="MistyRose" />
	<text x="1315.0000" y="490.0000" text-anchor="start">b05.10</text>
	<rect x="95.0000" y="570.0000" width="120.0000" height="80.0000" fill="steelblue" stroke="MistyRose" />
	<text x="100.0000" y="585.0000" text-anchor="start">b06.1</text>
	<rect x="230.0000" y="570.0000" width="120.0000" height="80.0000" fill="steelblue" stroke="MistyRose" />
	<text x="235.0000" y="585.0000" text-anchor="start">b06.2</text>
	<rect x="365.0000" y="570.0000" width="120.0000" height="80.0000" fill="steelblue" stroke="MistyRose" />
	<text x="370.0000" y="585.0000" text-anchor="start">b06.3</text>
	<rect x="500.0000" y="570.0000" width="120.0000" height="80.0000" fill="steelblue" stroke="MistyRose" />
	<text x="505.0000" y="585.0000" text-anchor="start">b06.4</text>
	<rect x="635.0000" y="570.0000" width="120.0000" height="80.0000" fill="steelblue" stroke="MistyRose" />
	<text x="640.0000" y="585.0000" text-anchor="start">b06.5</text>
	<rect x="770.0000" y="570.0000" width="120.0000" height="80.0000" fill="steelblue" stroke="MistyRose" />
	<text x="775.0000" y="585.0000" text-anchor="start">b06.6</text>
	<rect x="905.0000" y="570.0000" width="120.0000" height="80.0000" fill="steelblue" stroke="MistyRose" />
	<text x="910.0000" y="585.0000" text-anchor="start">b06.7</text>
	<rect x="1040.0000" y="570.0000" width="120.0000" height="80.0000" fill="steelblue" stroke="MistyRose" />
	<text x="1045.0000" y="585.0000" text-anchor="start">b06.8</text>
	<rect x="1175.0000" y="570.0000" width="120.0000" height="80.0000" fill="steelblue" stroke="MistyRose" />
	<text x="1180.0000" y="585.0000" text-anchor="start">b06.9</text>
	<rect x="1310.0000" y="570.0000" width="120.0000" height="80.0000" fill="steelblue" stroke="MistyRose" />
	<text x="1315.0000" y="585.0000" text-anchor="start">b06.10</text>
	<rect x="95.0000" y="665.0000" width="120.0000" height="80.0000" fill="steelblue" stroke="MistyRose" />
	<text x="100.0000" y="680.0000" text-anchor="start">b07.1</text>
	<rect x="230.0000" y="665.0000" width="120.0000" height="80.0000" fill="steelblue" stroke="MistyRose" />
	<text x="235.0000" y="680.0000" text-anchor="start">b07.2</text>
	<rect x="365.0000" y="665.0000" width="120.0000" height="80.0000" fill="steelblue" stroke="MistyRose" />
	<text x="370.0000" y="680.0000" text-anchor="start">b07.3</text>
	<rect x="500.0000" y="665.0000" width="120.0000" height="80.0000" fill="steelblue" stroke="MistyRose" />
	<text x="505.0000" y="680.0000" text-anchor="start">b07.4</text>
	<rect x="635.0000" y="665.0000" width="120.0000" height="80.0000" fill="steelblue" stroke="MistyRose" />
	<text x="640.0000" y="680.0000" text-anchor="start">b07.5</text>
	<rect x="770.0000" y="665.0000" width="120.0000" height="80.0000" fill="steelblue" stroke="MistyRose" />
	<text x="775.0000" y="680.0000" text-anchor="start">b07.6</text>
	<rect x="905.0000" y="665.0000" width="120.0000" height="80.0000" fill="steelblue" stroke="MistyRose" />
	<text x="910.0000" y="680.0000" text-anchor="start">b07.7</text>
	<rect x="1040.0000" y="665.0000" width="120.0000" height="80.0000" fill="steelblue" stroke="MistyRose" />
	<text x="1045.0000" y="680.0000" text-anchor="start">b07.8</text>
	<rect x="1175.0000" y="665.0000" width="120.0000" height="80.0000" fill="steelblue" stroke="MistyRose" />
	<text x="1180.0000" y="680.0000" text-anchor="start">b07.9</text>
	<rect x="1310.0000" y="665.0000" width="120.0000" height="80.0000" fill="steelblue" stroke="MistyRose" />
	<text x="1315.0000" y="680.0000" text-anchor="start">b07.10</text>
	<rect x="95.0000" y="760.0000" width="120.0000" height="80.0000" fill="steelblue" stroke="MistyRose" />
	<text x="100.0000" y="775.0000" text-anchor="start">b08.1</text>
	<rect x="230.0000" y="760.0000" width="120.0000" height="80.0000" fill="steelblue" stroke="MistyRose" />
	<text x="235.0000" y="775.0000" text-anchor="start">b08.2</text>
	<rect x="365.0000" y="760.0000" width="120.0000" height="80.0000" fill="steelblue" stroke="MistyRose" />
	<text x="370.0000" y="775.0000" text-anchor="start">b08.3</text>
	<rect x="500.0000" y="760.0000" width="120.0000" height="80.0000" fill="steelblue" stroke="MistyRose" />
	<text x="505.0000" y="775.0000" text-anchor="start">b08.4</text>
	<rect x="635.0000" y="760.0000" width="120.0000" height="80.0000" fill="steelblue" stroke="MistyRose" />
	<text x="640.0000" y="775.0000" text-anchor="start">b08.5</text>
	<rect x="770.0000" y="760.0000" width="120.0000" height="80.0000" fill="steelblue" stroke="MistyRose" />
	<text x="775.0000" y="775.0000" text-anchor="start">b08.6</text>
	<rect x="905.0000" y="760.0000" width="120.0000" height="80.0000" fill="steelblue" stroke="MistyRose" />
	<text x="910.0000" y="775.0000" text-anchor="start">b08.7</text>
	<rect x="1040.0000" y="760.0000" width="120.0000" height="80.0000" fill="steelblue" stroke="MistyRose" />
	<text x="1045.0000" y="775.0000" text-anchor="start">b08.8</text>
	<rect x="1175.0000" y="760.0000" width="120.0000" height="80.0000" fill="steelblue" stroke="MistyRose" />
	<text x="1180.0000" y="775.0000" text-anchor="start">b08.9</text>
	<rect x="1310.0000" y="760.0000" width="120.0000" height="80.0000" fill="steelblue" stroke="MistyRose" />
	<text x="1315.0000" y="775.0000" text-anchor="start">b08.10</text>
	<rect x="95.0000" y="855.0000" width="120.0000" height="80.0000" fill="steelblue" stroke="MistyRose" />
	<text x="100.0000" y="870.0000" text-anchor="start">b09.1</text>
	<rect x="230.0000" y="855.0000" width="120.0000" height="80.0000" fill="steelblue" stroke="MistyRose" />
	<text x="235.0000" y="870.0000" text-anchor="start">b09.2</text>
	<rect x="365.0000" y="855.0000" width="120.0000" height="80.0000" fill="steelblue" stroke="MistyRose" />
	<text x="370.0000" y="870.0000" text-anchor="start">b09.3</text>
	<rect x="500.0000" y="855.0000" width="120.0000" height="80.0000" fill="steelblue" stroke="MistyRose" />
	<text x="505.0000" y="870.0000" text-anchor="start">b09.4</text>
	<rect x="635.0000" y="855.0000" width="120.0000" height="80.0000" fill="steelblue" stroke="MistyRose" />
	<text x="640.0000" y="870.0000" text-anchor="start">b09.5</text>
	<rect x="770.0000" y="855.0000" width="120.0000" height="80.0000" fill="steelblue" stroke="MistyRose" />
	<text x="775.0000" y="870.0000" text-anchor="start">b09.6</text>
	<rect x="905.0000" y="855.0000" width="120.0000" height="80.0000" fill="steelblue" stroke="MistyRose" />
	<text x="910.0000" y="870.0000" text-anchor="start">b09.7</text>
	<rect x="1040.0000" y="855.0000" width="120.0000" height="80.0000" fill="steelblue" stroke="MistyRose" />
	<text x="1045.0000" y="870.0000" text-anchor="start">b09.8</text>
	<rect x="1175.0000" y="855.0000" width="120.0000" height="80.0000" fill="steelblue" stroke="MistyRose" />
	<text x="1180.0000" y="870.0000" text-anchor="start">b09.9</text>
	<rect x="1310.0000" y="855.0000" width="120.0000" height="80.0000" fill="steelblue" stroke="MistyRose" />
	<text x="1315.0000" y="870.0000" text-anchor="start">b09.10</text>
	<rect x="95.0000" y="950.0000" width="120.0000" height="80.0000" fill="steelblue" stroke="MistyRose" />
	<text x="100.0000" y="965.0000" text-anchor="start">b010.1</text>
	<rect x="230.0000" y="950.0000" width="120.0000" height="80.0000" fill="steelblue" stroke="MistyRose" />
	<text x="235.0000" y="965.0000" text-anchor="start">b010.2</text>
	<rect x="365.0000" y="950.0000" width="120.0000" height="80.0000" fill="steelblue" stroke="MistyRose" />
	<text x="370.0000" y="965.0000" text-anchor="start">b010.3</text>
	<rect x="500.0000" y="950.0000" width="120.0000" height="80.0000" fill="steelblue" stroke="MistyRose" />
	<text x="505.0000" y="965.0000" text-anchor="start">b010.4</text>
	<rect x="635.0000" y="950.0000" width="120.0000" height="80.0000" fill="steelblue" stroke="MistyRose" />
	<text x="640.0000" y="965.0000" text-anchor="start">b010.5</text>
	<rect x="770.0000" y="950.0000" width="120.0000" height="80.0000" fill="steelblue" stroke="MistyRose" />
	<text x="775.0000" y="965.0000" text-anchor="start">b010.6</text>
	<rect x="905.0000" y="950.0000" width="120.0000" height="80.0000" fill="steelblue" stroke="MistyRose" />
	<text x="910.0000" y="965.0000" text-anchor="start">b010.7</text>
	<rect x="1040.0000" y="950.0000" width="120.0000" height="80.0000" fill="steelblue" stroke="MistyRose" />
	<text x="1045.0000" y="965.0000" text-anchor="start">b010.8</text>
	<rect x="1175.0000" y="950.0000" width="120.0000" height="80.0000" fill="steelblue" stroke="MistyRose" />
	<text x="1180.0000" y="965.0000" text-anchor="start">b010.9</text>
	<rect x="1310.0000" y="950.0000" width="120.0000" height="80.0000" fill="steelblue" stroke="MistyRose" />
	<text x="1315.0000" y="965.0000" text-anchor="start">b010.10</text>
</svg>
